<mxfile host="app.diagrams.net" modified="2024-01-14T16:10:17.051Z" agent="Mozilla/5.0 (Windows NT 10.0; Win64; x64) AppleWebKit/537.36 (KHTML, like Gecko) Chrome/120.0.0.0 Safari/537.36" version="22.1.18" etag="3xvyloz4mHTyTC1bFqbH" type="github">
  <diagram name="Страница — 1" id="O01I60Te7G2iEymojHLW">
    <mxGraphModel>
      <root>
        <mxCell id="0" />
        <mxCell id="1" parent="0" />
      </root>
    </mxGraphModel>
  </diagram>
</mxfile>
